<svg width="185" height="74" viewBox="0 0 185 74" fill="none" xmlns="http://www.w3.org/2000/svg">
  <g clip-path="url(#clip0_4368_1882)">
    <path d="M15.916 0C5.43016 10.3038 0 23.4177 0 37.0937C0 51.519 5.61741 65.3823 15.7287 74C16.2905 74 17.7885 72.5013 17.7885 72.1266C10.8603 62.0101 7.11538 49.0835 7.11538 36.9063C7.11538 24.7291 10.8603 11.8025 17.7885 1.68608C17.9757 1.12405 16.2905 0 15.916 0Z" fill="#1B1B1B"/>
    <path d="M28.2742 25.6658C28.087 25.8532 28.087 27.7266 28.2742 27.9139C32.0192 29.4127 32.2064 29.7873 32.2064 32.7848V50.7696C32.2064 54.8911 31.0829 55.2658 29.0232 55.4532H27.338C26.9635 55.8278 26.9635 57.8886 27.338 58.2633C30.334 58.2633 33.7044 58.0759 37.4493 58.0759C41.007 58.0759 44.3775 58.0759 47.1862 58.2633C47.5607 58.0759 47.5607 55.8278 47.1862 55.4532H45.8754C43.4412 55.2658 42.3178 54.8911 42.3178 50.957V32.4101C42.3178 30.5367 42.505 23.043 42.505 21.7316C42.505 21.1696 42.1305 20.7949 41.5688 20.7949C41.007 20.7949 38.1983 22.2937 35.9514 23.043C33.5171 24.1671 30.7084 25.1038 28.2742 25.6658ZM37.2621 0C34.0789 0 31.4574 2.62278 31.4574 5.80759C31.4574 8.9924 34.0789 11.6152 37.2621 11.6152C40.4453 11.6152 43.0667 8.9924 43.0667 5.80759C43.0667 2.62278 40.4453 0 37.2621 0Z" fill="#1B1B1B"/>
    <path d="M63.29 45.7115C59.545 45.7115 56.5491 48.709 56.5491 52.4558C56.5491 56.2027 59.545 59.2001 63.29 59.2001C67.0349 59.2001 70.0309 56.2027 70.0309 52.4558C70.0309 48.709 67.0349 45.7115 63.29 45.7115Z" fill="#1B1B1B"/>
    <path d="M109.165 36.7189C109.914 36.7189 110.289 36.5316 110.663 35.9695C111.038 35.5949 111.038 35.2202 111.038 34.8455C111.038 27.5392 106.544 21.5442 97.743 21.5442C86.6955 21.5442 79.3928 30.724 79.3928 41.2151C79.3928 50.5822 85.3847 59.1999 96.245 59.1999C102.237 59.1999 108.229 55.8278 111.787 49.2708C111.787 48.5214 110.476 47.3974 110.101 47.5847C107.48 50.9569 104.297 51.8936 101.113 51.8936C92.5001 51.8936 88.7552 44.7746 88.7552 38.405C88.7552 37.0936 89.1297 36.7189 90.4404 36.7189H109.165ZM89.1297 32.9721C89.6914 29.0379 92.5001 24.9164 96.8068 24.9164C100.177 24.9164 102.05 27.7265 102.05 30.724C102.05 32.7847 101.488 33.1594 100.177 33.3467C99.0537 33.5341 97.5558 33.5341 94.7471 33.5341H89.6914C89.1297 33.5341 89.1297 33.1594 89.1297 32.9721Z" fill="#1B1B1B"/>
    <path d="M128.076 45.5241C124.331 45.5241 121.335 48.5216 121.335 52.2684C121.335 56.0152 124.331 59.0127 128.076 59.0127C131.821 59.0127 134.817 56.0152 134.817 52.2684C134.817 48.5216 131.821 45.5241 128.076 45.5241Z" fill="#1B1B1B"/>
    <path d="M143.993 71.5647C151.67 69.6913 158.411 64.633 158.411 55.828C158.411 49.4584 154.479 45.7115 149.985 45.7115C146.614 45.7115 143.806 48.5217 143.806 51.7065C143.806 53.7672 144.929 55.0786 146.24 55.6406C148.487 56.5774 151.483 57.1394 151.483 61.0735C151.483 65.5697 146.427 68.1925 142.869 69.3166C142.308 69.3166 143.057 71.3773 143.993 71.5647Z" fill="#1B1B1B"/>
    <path d="M169.084 0C168.522 0 167.024 1.12405 167.024 1.49873C173.952 11.6152 177.697 24.7291 177.697 36.719C177.697 48.8962 173.952 62.0101 167.024 71.9392C167.024 72.3139 168.709 73.8127 169.084 73.8127C179.382 65.1949 184.813 51.1443 184.813 36.9063C185 23.4177 179.382 10.3038 169.084 0Z" fill="#1B1B1B"/>
  </g>
  <defs>
    <clipPath id="clip0_4368_1882">
      <rect width="185" height="74" fill="white"/>
    </clipPath>
  </defs>
</svg>